<svg width="30" height="31" viewBox="0 0 30 31" fill="none" xmlns="http://www.w3.org/2000/svg">
<path d="M8.85265 14.3795C9.40083 12.334 11.5034 10.2314 13.5489 9.68322L26.3016 6.26564C28.3471 5.71747 29.5609 6.9313 29.0128 8.97681L25.5952 21.7295C25.047 23.775 22.9444 25.8776 20.8989 26.4258L8.14624 29.8433C6.10073 30.3915 4.8869 29.1777 5.43508 27.1322L8.85265 14.3795Z" fill="#335CFF" fill-opacity="0.2"/>
<path d="M3.74035 9.26623C4.28853 7.22071 6.39113 5.11812 8.43664 4.56994L21.1893 1.15236C23.2348 0.604183 24.4486 1.81801 23.9005 3.86353L20.4829 16.6162C19.9347 18.6617 17.8321 20.7643 15.7866 21.3125L3.03394 24.73C0.988429 25.2782 -0.225404 24.0644 0.322772 22.0189L3.74035 9.26623Z" fill="#CC5EB3"/>
</svg>
