<svg width="74" height="74" viewBox="0 0 74 74" fill="none" xmlns="http://www.w3.org/2000/svg">
<path d="M22.1299 34.1968C23.5004 29.083 28.7569 23.8265 33.8706 22.4561L65.7523 13.9122C70.8661 12.5417 73.9006 15.5763 72.5302 20.6901L63.9862 52.5717C62.6158 57.6855 57.3593 62.942 52.2455 64.3124L20.3639 72.8564C15.2501 74.2268 12.2155 71.1922 13.586 66.0784L22.1299 34.1968Z" fill="white"/>
<path d="M9.34965 21.4156C10.7201 16.3018 15.9766 11.0453 21.0904 9.67485L52.972 1.1309C58.0858 -0.239541 61.1204 2.79504 59.75 7.90882L51.206 39.7904C49.8356 44.9042 44.5791 50.1607 39.4653 51.5312L7.58363 60.0751C2.46985 61.4456 -0.564731 58.411 0.80571 53.2972L9.34965 21.4156Z" fill="#CC5EB3"/>
</svg>
